<svg xmlns="http://www.w3.org/2000/svg" width="150mm" height="80mm" viewBox="0 0 150 80"><rect x="0" y="0" width="150" height="80" fill="white" stroke="#ccc" stroke-dasharray="2,2" /><g transform="translate(10,10)"><rect x="0"     y="0"      width="10" height="10" fill="#00ffff" /><rect x="10" y="0"      width="10" height="10" fill="#ff00ff" /><rect x="0"     y="10" width="10" height="10" fill="#ffff00" /><rect x="10" y="10" width="10" height="10" fill="#00ffff" /><polygon points="0,0 5,0 0,5" fill="#ffffff" /></g><g transform="translate(35,10)"><rect x="0"     y="0"      width="10" height="10" fill="#00ffff" /><rect x="10" y="0"      width="10" height="10" fill="#ff00ff" /><rect x="0"     y="10" width="10" height="10" fill="#ffff00" /><rect x="10" y="10" width="10" height="10" fill="#ff00ff" /><polygon points="0,0 5,0 0,5" fill="#ffffff" /></g><g transform="translate(60,10)"><rect x="0"     y="0"      width="10" height="10" fill="#00ffff" /><rect x="10" y="0"      width="10" height="10" fill="#ff00ff" /><rect x="0"     y="10" width="10" height="10" fill="#ffff00" /><rect x="10" y="10" width="10" height="10" fill="#ffff00" /><polygon points="0,0 5,0 0,5" fill="#ffffff" /></g><g transform="translate(85,10)"><rect x="0"     y="0"      width="10" height="10" fill="#00ffff" /><rect x="10" y="0"      width="10" height="10" fill="#ff00ff" /><rect x="0"     y="10" width="10" height="10" fill="#ffff00" /><rect x="10" y="10" width="10" height="10" fill="#000000" /><polygon points="0,0 5,0 0,5" fill="#ffffff" /></g><g transform="translate(110,10)"><rect x="0"     y="0"      width="10" height="10" fill="#00ffff" /><rect x="10" y="0"      width="10" height="10" fill="#ff00ff" /><rect x="0"     y="10" width="10" height="10" fill="#000000" /><rect x="10" y="10" width="10" height="10" fill="#00ffff" /><polygon points="0,0 5,0 0,5" fill="#ffffff" /></g><g transform="translate(10,35)"><rect x="0"     y="0"      width="10" height="10" fill="#00ffff" /><rect x="10" y="0"      width="10" height="10" fill="#ff00ff" /><rect x="0"     y="10" width="10" height="10" fill="#000000" /><rect x="10" y="10" width="10" height="10" fill="#ff00ff" /><polygon points="0,0 5,0 0,5" fill="#ffffff" /></g><g transform="translate(35,35)"><rect x="0"     y="0"      width="10" height="10" fill="#00ffff" /><rect x="10" y="0"      width="10" height="10" fill="#ff00ff" /><rect x="0"     y="10" width="10" height="10" fill="#000000" /><rect x="10" y="10" width="10" height="10" fill="#ffff00" /><polygon points="0,0 5,0 0,5" fill="#ffffff" /></g><g transform="translate(60,35)"><rect x="0"     y="0"      width="10" height="10" fill="#00ffff" /><rect x="10" y="0"      width="10" height="10" fill="#ff00ff" /><rect x="0"     y="10" width="10" height="10" fill="#000000" /><rect x="10" y="10" width="10" height="10" fill="#000000" /><polygon points="0,0 5,0 0,5" fill="#ffffff" /></g><g transform="translate(85,35)"><rect x="0"     y="0"      width="10" height="10" fill="#00ffff" /><rect x="10" y="0"      width="10" height="10" fill="#ffff00" /><rect x="0"     y="10" width="10" height="10" fill="#00ffff" /><rect x="10" y="10" width="10" height="10" fill="#00ffff" /><polygon points="0,0 5,0 0,5" fill="#ffffff" /></g><g transform="translate(110,35)"><rect x="0"     y="0"      width="10" height="10" fill="#00ffff" /><rect x="10" y="0"      width="10" height="10" fill="#ffff00" /><rect x="0"     y="10" width="10" height="10" fill="#00ffff" /><rect x="10" y="10" width="10" height="10" fill="#ff00ff" /><polygon points="0,0 5,0 0,5" fill="#ffffff" /></g></svg>